<svg width="512" height="512" viewBox="0 0 512 512" fill="none" xmlns="http://www.w3.org/2000/svg">
<rect width="512" height="512" fill="#DDDDDD"/>
<rect y="256.151" width="512" height="255.85" fill="#AAAAAA"/>
<path d="M247.282 324.454C260.887 324.454 268.54 316.633 270.071 304.221C270.071 302.691 270.241 300.991 270.241 299.631C271.771 280.078 279.424 271.576 307.144 253.554C337.585 234.001 354.762 211.558 354.762 179.083C354.762 127.056 312.416 96.2812 255.445 96.2812C213.27 96.2812 178.407 114.474 163.612 145.418C159.701 153.409 158 161.571 158 169.052C158 182.314 166.333 191.325 180.618 191.325C191.672 191.325 200.175 185.374 203.917 175.173C212.08 148.649 229.936 138.277 253.235 138.277C281.465 138.277 303.233 154.6 303.233 179.593C303.233 202.036 290.308 213.768 265.989 229.75C240.82 246.583 223.304 264.946 223.304 292.489V300.311C223.304 314.763 232.317 324.454 247.282 324.454ZM247.623 420.518C264.629 420.518 278.404 407.086 278.404 390.594C278.404 373.931 264.629 360.839 247.623 360.839C230.786 360.839 217.011 373.931 217.011 390.594C217.011 407.086 230.786 420.518 247.623 420.518Z" fill="white"/>
</svg>
