<svg width="72" height="48" viewBox="0 0 72 48" fill="none" xmlns="http://www.w3.org/2000/svg">
<rect width="71.9859" height="48" fill="#DDDDDD"/>
<rect y="24.0142" width="71.9859" height="23.9859" fill="#AAAAAA"/>
<path d="M35.14 30.4176C36.4155 30.4176 37.1329 29.6843 37.2764 28.5207C37.2764 28.3773 37.2924 28.2179 37.2924 28.0904C37.4358 26.2573 38.1533 25.4603 40.752 23.7707C43.6059 21.9376 45.2162 19.8335 45.2162 16.789C45.2162 11.9115 41.2463 9.02637 35.9053 9.02637C31.9513 9.02637 28.683 10.7319 27.2959 13.633C26.9292 14.3821 26.7698 15.1472 26.7698 15.8486C26.7698 17.0919 27.551 17.9367 28.8902 17.9367C29.9265 17.9367 30.7237 17.3788 31.0745 16.4224C31.8397 13.9358 33.5138 12.9635 35.698 12.9635C38.3446 12.9635 40.3854 14.4937 40.3854 16.8369C40.3854 18.9409 39.1737 20.0408 36.8938 21.5391C34.5342 23.1171 32.892 24.8386 32.892 27.4209V28.1541C32.892 29.509 33.737 30.4176 35.14 30.4176ZM35.1719 39.4236C36.7662 39.4236 38.0576 38.1643 38.0576 36.6182C38.0576 35.0561 36.7662 33.8287 35.1719 33.8287C33.5935 33.8287 32.3021 35.0561 32.3021 36.6182C32.3021 38.1643 33.5935 39.4236 35.1719 39.4236Z" fill="white"/>
</svg>
